<svg version="1.1"
    viewBox="0 0 260 260"
    xmlns="http://www.w3.org/2000/svg">
    <path stroke="rgb(0 137 90)" stroke-width="2" fill="none"
        d="m 148.99585,126.26146 c -5.7618,2.8633 -7.84617,7.48536 -6.11139,13.93398 2.88377,5.15427 11.89067,-0.31663 11.8561,-4.03352 1.61333,-3.66684 -1.79753,-10.79804 -2.93346,-8.55596 -2.72524,5.37904 10.42233,6.86034 15.64517,7.82259"
    />
    <path stroke="rgb(0 137 90)" stroke-width="2" fill="none"
        d="m 74.314584,91.426495 c 6.931087,7.534599 20.614974,3.674082 28.845796,-0.488912 6.79736,-5.625147 10.75462,-13.070814 11.73388,-21.023204 0,0 -28.266851,11.682498 3.42238,118.316641 7.00014,26.76329 0.25629,43.48923 -16.623,40.57967 -15.008509,-2.58708 -22.042391,-12.28141 -18.578645,-28.35688 7.271883,-33.74927 60.249645,-48.00215 90.937585,-67.95873 19.75712,-13.08015 -33.59257,-25.23674 -1.46674,-42.53532 L 237.6111,69.914378"
    />
    <path stroke="rgb(0 137 90)" stroke-width="2" fill="none"
        d="m 115.98665,145.19938 c -0.45807,-3.23862 0.61905,-7.81575 5.09926,-8.38354 4.48021,-0.56779 7.52748,3.98641 8.12425,7.43283 0.59677,3.44642 1.18521,8.65403 -4.66712,8.81567 -5.85233,0.16164 -8.01385,-4.02916 -8.55639,-7.86496 z"
    />
    <path stroke="rgb(0 137 90)" stroke-width="2" fill="none"
        d="m 133.96182,148.99585 c -1.85207,-6.48624 -1.81549,-13.93952 2.32233,-16.01186 4.25181,-2.12942 3.83334,4.48215 3.42238,9.77824"
    />
</svg>