<svg version="1.1" xmlns="http://www.w3.org/2000/svg" viewBox="0 0 676 393.5" width="676" height="393.5">
  <!-- svg-source:excalidraw -->
  
  <defs>
    <style>
      @font-face {
        font-family: "Virgil";
        src: url("https://excalidraw.com/Virgil.woff2");
      }
      @font-face {
        font-family: "Cascadia";
        src: url("https://excalidraw.com/Cascadia.woff2");
      }
    </style>
  </defs>
  <g transform="translate(220.5 10) rotate(0 121.5 45.5)"><path d="M0.028238052178889507 1.3511863271756825 C94.6122067194065 0.49549587608854, 192.20891138734822 0.33081542471009917, 243.74460045458392 0.9455160177669225 M-0.5409802421806483 -0.6210287020811408 C96.37254003674116 0.05896755151200905, 193.01885860666331 0.2900152522973598, 242.69805562534708 -0.36195527365086966 M241.39603976160294 -0.7646676674485207 C243.5611341303215 28.260969891026622, 241.07062390502549 58.89875191971661, 242.57172588258987 89.7800784930587 M242.32516769692307 -0.8301018290221691 C243.98599888641394 31.859326276555663, 243.55620707828558 65.99762599468232, 242.7766369991005 91.04458357766272 M241.78740066398657 92.03492009340151 C167.9205096207546 89.65270702435758, 91.1101057192523 89.57226470414369, -1.4807929995630917 90.7559916899864 M242.47002644442964 91.56971665993841 C170.74356384650397 90.36581814150351, 100.15878070344587 90.9635386918433, 0.2287414354618877 91.31750318078201 M0.11840275675058365 90.41947110742332 C0.8711528289690613 72.5665361236781, -2.2667115223035217 53.07135107889772, 1.9614014998078346 -1.1882027760148048 M0.6568382196128368 91.23769893124701 C-0.8725516842678191 62.33532476834954, -0.09914982784539483 34.71605073362589, 0.03820101544260979 0.0012164302170276642" stroke="#000000" stroke-width="1" fill="none"></path></g><g transform="translate(323 42.5) rotate(0 19 13)"><text x="19" y="19" font-family="Virgil, Segoe UI Emoji" font-size="20px" fill="#000000" text-anchor="middle" style="white-space: pre;" direction="ltr">html</text></g><g transform="translate(10 265.5) rotate(0 121.5 45.5)"><path d="M-0.07638066697432397 0.627547682406777 C77.4010617579483 -0.7634770144743166, 156.5254323206944 -0.6571925305134021, 242.44104499718608 1.4359807665160833 M-0.69676687211515 0.3810857295898109 C82.7036611097867 -0.7224961328697984, 164.23225525475922 -0.23735008129709423, 243.50179376072631 -0.7653663833678572 M243.26379898935562 1.8410151824355125 C243.53630902703858 34.808595218136915, 244.36783554490663 66.92005800530316, 242.67122033983475 92.47702416032554 M243.71830300614243 -0.7955905012786388 C243.0856757028774 33.43200262524188, 243.38585673410452 67.29181697368622, 242.60187832638627 91.26869298890234 M242.8211658118988 89.39757816398905 C167.7859728181251 91.55982759157195, 94.52429897819049 91.35803939029117, 1.485241946823245 90.64072550487326 M242.3567696436577 91.34124659936083 C188.65852729400936 92.23125075136211, 133.31959093379885 92.25031916694239, -0.19939408710567053 90.91261332217587 M1.6798570528626442 91.37979873269798 C1.7563241160288454 70.29381561987103, 1.648504320420325 48.253570727258925, 1.8786144629120827 -1.4012607708573341 M-0.7692861147224903 90.78995623067023 C0.18650931131094683 65.81377404145897, -1.29693239916116 38.47591658979654, -0.4162665195763111 0.3988335318863392" stroke="#000000" stroke-width="1" fill="none"></path></g><g transform="translate(423 262.5) rotate(0 121.5 45.5)"><path d="M0.627547682406777 -0.29193774246050713 C50.11893712053085 1.2322358302505996, 101.40410583616347 -0.4661524924401731, 244.43598076651614 0.6364860978656112 M0.3810857295898109 0.4673202297652095 C79.6596561119836 1.452716993956063, 159.75542167910945 2.194937259966061, 242.2346336166322 0.5638748501584857 M244.84101518243557 -0.35612865537405014 C243.773044176139 36.69977468661965, 242.389588184394 72.119973988086, 244.47702416032558 92.43324307352306 M242.20440949872142 0.050912778824567795 C242.61185359220957 27.998723050579432, 242.65041195612406 54.89713680744172, 243.2686929889024 91.07926730439068 M241.3975781639891 90.61216831481833 C161.11006371492485 91.95940643303399, 80.42545463360351 92.26795840828024, -0.35927449512675397 89.78314333645548 M243.34124659936086 91.70898014588595 C155.60550032354723 89.8574468716402, 68.81495580297347 89.23755614698247, -0.08738667782414852 90.46942195052604 M0.3797987326979637 92.26462606340648 C0.9014048283919692 69.77378679402173, 0.3320510094985366 48.112575515359644, -1.4012607708573341 -0.25867005437612534 M-0.2100437693297863 91.9772106818855 C0.2109662907198071 55.28675526566804, -1.0038399083539844 20.16970606893301, 0.3988335318863392 0.0934176854789257" stroke="#000000" stroke-width="1" fill="none"></path></g><g transform="translate(108.5 298) rotate(0 23 13)"><text x="23" y="19" font-family="Virgil, Segoe UI Emoji" font-size="20px" fill="#000000" text-anchor="middle" style="white-space: pre;" direction="ltr">head</text></g><g transform="translate(523.5 295) rotate(0 21 13)"><text x="21" y="19" font-family="Virgil, Segoe UI Emoji" font-size="20px" fill="#000000" text-anchor="middle" style="white-space: pre;" direction="ltr">body</text></g><g><g transform="translate(318.5 103) rotate(0 -56.35000808089973 79.3599268898368)"><path d="M0.6008838191628456 -1.1371651902794837 C-18.220511816442013 25.340775194267433, -94.29453577846289 133.19677115132413, -113.30089998096227 159.85701896995306" stroke="#000000" stroke-width="1.5" fill="none" stroke-dasharray="3 6"></path></g><g transform="translate(318.5 103) rotate(0 -56.35000808089973 79.3599268898368)"><path d="M-107.26876441280567 132.08853472942005 C-107.50536442013333 139.68277791978417, -111.35865243365386 145.24986076428962, -113.89994474351406 159.36728583276272" stroke="#000000" stroke-width="1.5" fill="none" stroke-dasharray="3 4"></path></g><g transform="translate(318.5 103) rotate(0 -56.35000808089973 79.3599268898368)"><path d="M-90.52523391455914 143.95336464139635 C-95.36293268286164 148.44032979719873, -103.71949624217804 150.81629363587527, -113.89994474351406 159.36728583276272" stroke="#000000" stroke-width="1.5" fill="none" stroke-dasharray="3 4"></path></g></g><g><g transform="translate(362.5 106) rotate(0 51.05156538635492 75.41276473850013)"><path d="M0.12370209842920299 0.023993276059627533 C17.061011093358196 25.29982082694769, 84.74105308999617 125.9403738722205, 101.97942867428064 150.8015362009406" stroke="#000000" stroke-width="1.5" fill="none" stroke-dasharray="3 6"></path></g><g transform="translate(362.5 106) rotate(0 51.05156538635492 75.41276473850013)"><path d="M77.66764239145567 131.57942390894362 C86.86604382547813 139.95405387966693, 92.20886769674003 144.77306027416682, 100.69191450178623 149.2049157232046" stroke="#000000" stroke-width="1.5" fill="none" stroke-dasharray="3 4"></path></g><g transform="translate(362.5 106) rotate(0 51.05156538635492 75.41276473850013)"><path d="M94.62726009880564 120.02557738034628 C98.15307205831124 132.22619877610944, 97.90547636251573 140.85371375982456, 100.69191450178623 149.2049157232046" stroke="#000000" stroke-width="1.5" fill="none" stroke-dasharray="3 4"></path></g></g><g transform="translate(498 372.5) rotate(0 84 10.5)"><text x="168" y="15" font-family="Virgil, Segoe UI Emoji" font-size="16px" fill="#adb5bd" text-anchor="end" style="white-space: pre;" direction="ltr">Made with Excalidraw</text></g></svg>